<?xml version="1.0"?>
<svg width="997" height="512" viewBox="0 0 997 512"
  xml:space="preserve"
  version="1.1"
  xmlns="http://www.w3.org/2000/svg">

<title>SVG graphic of nodes from net "C:\Users\mischer\Documents\WBS\WhatToStudy\Source\src\de\steilerdev\whatToStudy\Network\StudyNet_small.dne" generated by an unlicensed user using Netica 5.15 on Jan 12, 2015 at 13:22:15.</title>

<g id="Final_Grade">
<rect x="814" y="422" width="173" height="80" fill="#f8eed2" stroke-width="0"/>
<text x="867" y="437" font-family="Arial" font-size="11.25" font-weight="bold">Final_Grade</text>
<line x1="814" y1="442" x2="987" y2="442" stroke="black" stroke-width="1"/>
<text x="824" y="455" font-family="Arial" font-size="11.25">Very Good</text>
<text x="824" y="469" font-family="Arial" font-size="11.25">Satisfying</text>
<text x="824" y="483" font-family="Arial" font-size="11.25">Failed</text>
<text x="824" y="497" font-family="Arial" font-size="11.25">Good</text>
<text x="898" y="455" font-family="Arial" font-size="11.25">25.5</text>
<text x="898" y="469" font-family="Arial" font-size="11.25">24.4</text>
<text x="898" y="483" font-family="Arial" font-size="11.25">23.9</text>
<text x="898" y="497" font-family="Arial" font-size="11.25">26.2</text>
<rect x="926" y="442" width="61" height="60" fill="#c6bea8" stroke-width="0"/>
<line x1="941" y1="443" x2="941" y2="501" stroke="black" stroke-width="1" stroke-dasharray="3,3"/>
<line x1="957" y1="443" x2="957" y2="501" stroke="black" stroke-width="1" stroke-dasharray="3,3"/>
<line x1="972" y1="443" x2="972" y2="501" stroke="black" stroke-width="1" stroke-dasharray="3,3"/>
<rect x="926" y="448" width="16" height="7" fill="#000000" stroke-width="0"/>
<rect x="926" y="462" width="15" height="7" fill="#000000" stroke-width="0"/>
<rect x="926" y="476" width="15" height="7" fill="#000000" stroke-width="0"/>
<rect x="926" y="490" width="16" height="7" fill="#000000" stroke-width="0"/>
<rect x="926" y="442" width="61" height="60" fill-opacity="0" stroke="#000000" stroke-width="1"/>
<rect x="814" y="422" width="173" height="80" fill-opacity="0" stroke="#000000" stroke-width="1"/>
</g>

</svg>

